<?xml version="1.0" standalone="no"?>
<!DOCTYPE svg PUBLIC "-//W3C//DTD SVG 1.1//EN" "http://www.w3.org/Graphics/SVG/1.1/DTD/svg11.dtd">
<svg xmlns="http://www.w3.org/2000/svg">
<metadata>Generated by Fontastic.me</metadata>
<defs>
<font id="orthosensor" horiz-adv-x="512">
<font-face font-family="orthosensor" units-per-em="512" ascent="480" descent="-32"/>
<missing-glyph horiz-adv-x="512" />

<glyph glyph-name="add-person" unicode="&#98;" d="M176 304l-64 0 0 64-48 0 0-64-64 0 0-48 64 0 0-64 48 0 0 64 64 0z m256 48c0-53-43-96-96-96-53 0-96 43-96 96 0 53 43 96 96 96 53 0 96-43 96-96z m-80-112l-16 0c-85 0-176-59-176-144l0-48 352 0 0 48c0 85-75 144-160 144z"/>
<glyph glyph-name="c-add" unicode="&#99;" d="M256 512c-141 0-256-115-256-256 0-141 115-256 256-256 141 0 256 115 256 256 0 141-115 256-256 256z m128-288l-96 0 0-96-64 0 0 96-96 0 0 64 96 0 0 96 64 0 0-96 96 0z"/>
<glyph glyph-name="c-arrow-down" unicode="&#100;" d="M256 512c-141 0-256-115-256-256 0-141 115-256 256-256 141 0 256 115 256 256 0 141-115 256-256 256z m0-352l-96 112 192 0z"/>
<glyph glyph-name="c-arrow-up" unicode="&#101;" d="M256 0c141 0 256 115 256 256 0 141-115 256-256 256-141 0-256-115-256-256 0-141 115-256 256-256z m0 352l96-112-192 0z"/>
<glyph glyph-name="c-checkmark" unicode="&#102;" d="M256 512c-141 0-256-115-256-256 0-141 115-256 256-256 141 0 256 115 256 256 0 141-115 256-256 256z m-32-400l-48 48 8 8-56 56 48 48 56-56 136 136 48-48z"/>
<glyph glyph-name="calendar" unicode="&#103;" d="M464 464l-48 0 0 48-48 0 0-48-224 0 0 48-48 0 0-48-48 0c-26 0-48-22-48-48l0-368c0-27 22-48 48-48l416 0c27 0 48 22 48 48l0 368c0 26-22 48-48 48z m0-416l-416 0 0 320 416 0z m-368 272l64 0 0-64-64 0z m256 0l64 0 0-64-64 0z m-128 0l64 0 0-64-64 0z"/>
<glyph glyph-name="checkmark" unicode="&#104;" d="M80 304l-64-64 176-176 304 304-64 64-240-240z"/>
<glyph glyph-name="chevron" unicode="&#105;" d="M384 448l-62 64-258-256 256-256 64 64-192 192z"/>
<glyph glyph-name="clipboard" unicode="&#106;" d="M384 464l-80 0 0 14c0 18-16 34-34 34l-28 0c-18 0-34-16-34-34l0-14-80 0c-27 0-64-21-64-48l0-352c0-26 37-48 64-48l256 0c26 0 64 21 64 48l0 354c0 25-37 46-64 46z m-128 16c18 0 32-14 32-32 0-18-14-32-32-32-18 0-32 14-32 32 0 18 14 32 32 32z m144-384c0-21-19-38-40-38l-208 0c-21 0-40 17-40 38l0 288c0 21 19 38 40 38l24 0 0-54 160 0 0 54 24 0c21 0 40-17 40-38z"/>
<glyph glyph-name="close" unicode="&#107;" d="M512 464l-48 48-208-208-208 208-48-48 208-208-208-208 48-48 208 208 210-208 46 64-208 192z"/>
<glyph glyph-name="delete" unicode="&#108;" d="M96 64c0-35 29-64 64-64l208 0c35 0 64 29 64 64l0 352-336 0z m352 416l-96 0c0 18-14 32-32 32l-128 0c-18 0-32-14-32-32l-80 0c-18 0-32-14-32-32l0-16 432 0 0 16c0 18-14 32-32 32z"/>
<glyph glyph-name="download-bars" unicode="&#109;" d="M192 160l128 0 0-64-128 0z m-112 128l352 0 0-64-352 0z m-64 128l480 0 0-64-480 0z"/>
<glyph glyph-name="download-cloud" unicode="&#110;" d="M384 290c-13 68-72 128-144 128-58 0-102-32-128-80-61-7-112-50-112-112 0-66 46-128 112-128l272 0c54 0 96 41 96 96 0 52-45 92-96 96z m-32-48l-112-112-112 112 64 0 0 80 96 0 0-80z"/>
<glyph glyph-name="edit" unicode="&#111;" d="M32 128l-16-112 112 16 288 288-112 96z m448 304l-48 48c-18 18-46 18-64 0l-32-32 112-96 32 32c18 18 18 30 0 48z"/>
<glyph glyph-name="eye" unicode="&#112;" d="M256 382c-176 0-256-142-256-142 0 0 80-158 256-158 176 0 256 158 256 158 0 0-80 142-256 142z m0-254c-142 0-208 110-208 110 0 0 66 98 208 98 142 0 208-98 208-98 0 0-66-110-208-110z m80 112c0-44-36-80-80-80-44 0-80 36-80 80 0 44 36 80 80 80 44 0 80-36 80-80z"/>
<glyph glyph-name="lines" unicode="&#114;" d="M16 160l480 0 0-64-480 0z m0 128l480 0 0-64-480 0z m0 128l480 0 0-64-480 0z"/>
<glyph glyph-name="list" unicode="&#115;" d="M144 160l352 0 0-64-352 0z m-128 0l64 0 0-64-64 0z m128 128l352 0 0-64-352 0z m-128 0l64 0 0-64-64 0z m128 128l352 0 0-64-352 0z m-128 0l64 0 0-64-64 0z"/>
<glyph glyph-name="modify" unicode="&#116;" d="M304 64l-240 0 0 240 77 0 48 48-173 0 0-336 336 0 0 166-48-48z m-176 112l-16-80 80 16 208 208-64 64z m310 214l-32 32c-12 13-19 13-32 0l-22-22 64-64 22 22c13 13 13 20 0 32z"/>
<glyph glyph-name="search" unicode="&#117;" d="M368 192l-32 0 0 16c29 34 48 64 48 112 0 104-86 192-190 192-104 0-194-88-194-192 0-104 88-192 192-192 46 0 78 21 112 48l16 0 0-32 144-144 48 48z m-176 0c-72 0-128 56-128 128 0 72 56 128 128 128 72 0 128-56 128-128 0-72-56-128-128-128z"/>
<glyph glyph-name="triangle-down" unicode="&#118;" d="M0 336l256-256 256 256z"/>
<glyph glyph-name="upload" unicode="&#119;" d="M48 48l416 0 0-48-416 0z m144 64l128 0 0 160 144 0-208 224-208-224 144 0z"/>
<glyph glyph-name="add-folder" unicode="&#97;" d="M464 432l-205 0-35 48-189 0c-19 0-35-16-35-35l0-365c0-18 14-32 32-32l448 0c18 0 32 14 32 32l0 304c0 26-22 48-48 48z m0-240l-80 0 0-80-64 0 0 80-80 0 0 64 80 0 0 80 64 0 0-80 80 0z"/>
<glyph glyph-name="graph" unicode="&#113;" d="M163 114c5-2 8-2 13-2 27 0 48 21 48 48 0 2 0 3 0 5l78 25c8-9 21-14 36-14 27 0 48 21 48 48 0 6-2 13-4 18l64 94c2 0 4 0 5 0 27 0 48 21 48 48 0 27-21 48-48 48-27 0-48-21-48-48 0-8 2-16 7-22l-61-90c-7 0-10 0-13 0-27 0-48-21-48-48l-82-27c-8 6-19 11-30 11-27 0-48-21-48-48 0-5 2-10 2-14l-50-50 0 384-64 0 0-464 480 0 0 64-368 0z"/>
<glyph glyph-name="warning" unicode="&#120;" d="M496 64l-208 384c-5 10-18 32-32 32-14 0-27-22-32-32l-208-384c-18-34-18-64 32-64l416 0c50 0 50 30 32 64z m-240-16c-19 0-32 13-32 32 0 19 13 32 32 32 19 0 32-13 32-32 0-19-13-32-32-32z m32 272l0-144c0-19-13-32-32-32-19 0-32 13-32 32l0 144c0 19 13 32 32 32 19 0 32-13 32-32z"/>
</font>
</defs>
</svg>
